<svg width="40" height="40" viewBox="0 0 40 40" fill="none" xmlns="http://www.w3.org/2000/svg">
    <path d="M39.9998 26.3803C39.9998 21.9732 38.6947 17.7914 36.2183 14.2447C37.0448 11.6852 36.8279 8.90983 35.589 6.3596C34.274 3.65226 31.983 1.55148 29.1381 0.444374L27.9963 0L25.6094 6.47124C23.793 5.92132 21.9114 5.64319 19.9999 5.64319C18.0884 5.64319 16.2067 5.92132 14.3904 6.47124L12.0035 0L10.8616 0.444374C8.0167 1.55156 5.72569 3.65226 4.41058 6.3596C3.1718 8.90975 2.95481 11.6852 3.78129 14.2447C1.30517 17.7914 1.30431e-08 21.9732 1.30431e-08 26.3803V27.0181L12.8966 35.2109C13.9987 38.0097 16.767 40 20 40C23.2329 40 26.0013 38.0096 27.1033 35.2109L40 27.018V26.3803H39.9998V26.3803ZM6.07381 15.1183L6.45755 14.6017L6.2229 14.0051C5.39093 11.8903 5.51179 9.5335 6.56323 7.36889C7.44021 5.56335 8.85901 4.09382 10.6245 3.13898L12.9593 9.46904L14.0906 9.04842C15.9853 8.34389 17.9734 7.98655 20 7.98655C22.0264 7.98655 24.0146 8.34381 25.9093 9.04842L27.0405 9.46904L29.3754 3.13898C31.141 4.09382 32.5597 5.56335 33.4369 7.36881C34.4884 9.5335 34.6092 11.8903 33.7772 14.0051L33.5425 14.6016L33.9263 15.1183C35.0843 16.6772 35.9799 18.3849 36.5987 20.1947H33.6969C33.124 16.6906 30.025 14.0054 26.2996 14.0054C24.3277 14.0054 22.5317 14.758 21.1925 15.9859V11.8443H18.8075V15.9859C17.4683 14.7581 15.6722 14.0054 13.7004 14.0054C9.97493 14.0054 6.87589 16.6906 6.30313 20.1947H3.40137C4.02024 18.385 4.91582 16.6772 6.07381 15.1183ZM12.4019 32.1062L2.39493 25.749C2.42968 24.6585 2.55436 23.5857 2.76627 22.5382H8.59319V21.3665C8.59319 18.5997 10.8842 16.3488 13.7002 16.3488C16.5163 16.3488 18.8073 18.5997 18.8073 21.3665V24.3087C17.0758 25.2511 12.685 28.0308 12.4019 32.1062ZM19.9999 37.6566C17.117 37.6566 14.7717 35.3523 14.7717 32.5199C14.7717 31.4858 15.2475 29.8625 17.5137 28.0015C18.4651 27.2203 19.4324 26.6482 20.0007 26.3398C20.5595 26.6424 21.5039 27.2007 22.4488 27.971C24.7459 29.8436 25.2281 31.4782 25.2281 32.5199C25.2281 35.3523 22.8827 37.6566 19.9999 37.6566ZM27.5978 32.1061C27.3149 28.0307 22.9239 25.251 21.1925 24.3087V21.3666C21.1925 18.5998 23.4835 16.3489 26.2995 16.3489C29.1156 16.3489 31.4066 18.5998 31.4066 21.3666V22.5382H37.2335C37.4455 23.5858 37.5701 24.6586 37.6048 25.7491L27.5978 32.1061Z" fill="black" fill-opacity="0.5"/>
    <path d="M2.38508 0H0V2.34335H2.38508V0Z" transform="translate(11.679 21.8422)" fill="black" fill-opacity="0.5"/>
    <path d="M2.38507 0H0V2.34335H2.38507V0Z" transform="translate(25.9358 21.8422)" fill="black" fill-opacity="0.5"/>
    <path d="M5.08805 0L3.20544 1.23312L1.3229 0L-2.81489e-07 1.94976L3.20544 4.04952L6.41096 1.94976L5.08805 0Z" transform="translate(16.7944 31.2304)" fill="black" fill-opacity="0.5"/>
</svg>
